<svg width="16" height="16" xmlns="http://www.w3.org/2000/svg">

 <g>
  <title>background</title>
  <rect fill="none" id="canvas_background" height="402" width="582" y="-1" x="-1"/>
 </g>
 <g>
  <title>Layer 1</title>
  <path stroke="#ffffff" id="svg_1" d="m15.2,6l-1.1,-0.2c-0.1,-0.2 -0.1,-0.4 -0.2,-0.6l0.6,-0.9l0.5,-0.7l-2.6,-2.6l-0.7,0.5l-0.9,0.6c-0.2,-0.1 -0.4,-0.1 -0.6,-0.2l-0.2,-1.1l-0.2,-0.8l-3.6,0l-0.2,0.8l-0.2,1.1c-0.2,0.1 -0.4,0.1 -0.6,0.2l-0.9,-0.6l-0.7,-0.4l-2.5,2.5l0.5,0.7l0.6,0.9c-0.2,0.2 -0.2,0.4 -0.3,0.6l-1.1,0.2l-0.8,0.2l0,3.6l0.8,0.2l1.1,0.2c0.1,0.2 0.1,0.4 0.2,0.6l-0.6,0.9l-0.5,0.7l2.6,2.6l0.7,-0.5l0.9,-0.6c0.2,0.1 0.4,0.1 0.6,0.2l0.2,1.1l0.2,0.8l3.6,0l0.2,-0.8l0.2,-1.1c0.2,-0.1 0.4,-0.1 0.6,-0.2l0.9,0.6l0.7,0.5l2.6,-2.6l-0.5,-0.7l-0.6,-0.9c0.1,-0.2 0.2,-0.4 0.2,-0.6l1.1,-0.2l0.8,-0.2l0,-3.6l-0.8,-0.2zm-0.2,3l-1.7,0.3c-0.1,0.5 -0.3,1 -0.6,1.5l0.9,1.4l-1.4,1.4l-1.4,-0.9c-0.5,0.3 -1,0.5 -1.5,0.6l-0.3,1.7l-2,0l-0.3,-1.7c-0.5,-0.1 -1,-0.3 -1.5,-0.6l-1.4,0.9l-1.4,-1.4l0.9,-1.4c-0.3,-0.5 -0.5,-1 -0.6,-1.5l-1.7,-0.3l0,-2l1.7,-0.3c0.1,-0.5 0.3,-1 0.6,-1.5l-1,-1.4l1.4,-1.4l1.4,0.9c0.5,-0.3 1,-0.5 1.5,-0.6l0.4,-1.7l2,0l0.3,1.7c0.5,0.1 1,0.3 1.5,0.6l1.4,-0.9l1.4,1.4l-0.9,1.4c0.3,0.5 0.5,1 0.6,1.5l1.7,0.3l0,2z" fill="#444444"/>
  <path stroke="#ffffff" id="svg_2" d="m8,4.5c-1.9,0 -3.5,1.6 -3.5,3.5s1.6,3.5 3.5,3.5s3.5,-1.6 3.5,-3.5c0,-1.9 -1.6,-3.5 -3.5,-3.5zm0,6c-1.4,0 -2.5,-1.1 -2.5,-2.5s1.1,-2.5 2.5,-2.5s2.5,1.1 2.5,2.5c0,1.4 -1.1,2.5 -2.5,2.5z" fill="#444444"/>
 </g>
</svg>