<svg width="128" height="128" xmlns="http://www.w3.org/2000/svg">
 <!-- Created with SVG Editor - http://github.com/mzalive/SVG Editor/ -->

 <g>
  <title>background</title>
  <rect fill="none" id="canvas_background" height="130" width="130" y="-1" x="-1"/>
 </g>
 <g>
  <title>Layer 1</title>
  <g id="svg_5">
   <path fill="#ffffff" stroke="null" id="svg_4" d="m85.701384,6.49132c-1.844618,0 -3.255208,1.41059 -3.255208,3.255208c0,1.844618 1.41059,3.255208 3.255208,3.255208l24.740428,0l-50.34764,50.347643c-1.302083,1.302083 -1.302083,3.362866 0,4.556443c0.651042,0.651042 1.518673,0.976987 2.278221,0.976987c0.759549,0 1.62718,-0.325945 2.278221,-0.976987l50.347643,-50.347642l0,24.740429c0,1.844618 1.41059,3.255208 3.255208,3.255208c1.844618,0 3.255208,-1.41059 3.255208,-3.255208l0,-32.552081c0,-1.844618 -1.41059,-3.255208 -3.255208,-3.255208l-32.552081,0zm-65.104162,21.701387c-7.812499,0 -14.105902,6.293402 -14.105902,14.105902l0,65.104162c0,7.812499 6.293402,14.105902 14.105902,14.105902l65.104162,0c7.812499,0 14.105902,-6.293402 14.105902,-14.105902l0,-48.828121c0,-1.844618 -1.41059,-3.255208 -3.255208,-3.255208c-1.844618,0 -3.255208,1.41059 -3.255208,3.255208l0,48.828121c0,4.231771 -3.363715,7.595486 -7.595486,7.595486l-65.104162,0c-4.231771,0 -7.595486,-3.363715 -7.595486,-7.595486l0,-65.104162c0,-4.231771 3.363715,-7.595486 7.595486,-7.595486l48.828121,0c1.844618,0 3.255208,-1.41059 3.255208,-3.255208c0,-1.844618 -1.41059,-3.255208 -3.255208,-3.255208l-48.828121,0z"/>
  </g>
 </g>
</svg>