<svg width="512" height="512" xmlns="http://www.w3.org/2000/svg">
 <title/>

 <g>
  <title>background</title>
  <rect fill="none" id="canvas_background" height="402" width="582" y="-1" x="-1"/>
 </g>
 <g>
  <title>Layer 1</title>
  <g id="icomoon-ignore"/>
  <path fill="#ffffff" id="svg_1" d="m480,309.574l0,42.426l-42.426,0l-53.574,-53.574l-53.574,53.574l-42.426,0l0,-42.426l53.574,-53.574l-53.574,-53.574l0,-42.426l42.426,0l53.574,53.574l53.574,-53.574l42.426,0l0,42.426l-53.574,53.574l53.574,53.574z"/>
  <path fill="#ffffff" id="svg_2" d="m208.003,480c-4.164,0 -8.256,-1.625 -11.317,-4.687l-123.313,-123.313l-57.373,0c-8.836,0 -16,-7.163 -16,-16l0,-160c0,-8.836 7.164,-16 16,-16l57.373,0l123.313,-123.314c4.577,-4.577 11.458,-5.945 17.437,-3.468s9.877,8.311 9.877,14.782l0,416c0,6.472 -3.898,12.306 -9.877,14.782c-1.979,0.82 -4.059,1.218 -6.12,1.218z"/>
 </g>
</svg>