<svg width="512" height="512" xmlns="http://www.w3.org/2000/svg">
 <title/>

 <g>
  <title>background</title>
  <rect fill="none" id="canvas_background" height="402" width="582" y="-1" x="-1"/>
 </g>
 <g>
  <title>Layer 1</title>
  <g id="icomoon-ignore"/>
  <path fill="#ffffff" id="svg_1" d="m359.765,415.765c-6.143,0 -12.283,-2.343 -16.971,-7.028c-9.372,-9.372 -9.372,-24.568 0,-33.941c65.503,-65.503 65.503,-172.085 0,-237.588c-9.372,-9.373 -9.372,-24.569 0,-33.941c9.372,-9.371 24.569,-9.372 33.941,0c40.797,40.795 63.265,95.037 63.265,152.733s-22.468,111.938 -63.265,152.735c-4.686,4.687 -10.828,7.03 -16.97,7.03l0,0zm-85.255,-45.255c-6.143,0 -12.283,-2.343 -16.971,-7.029c-9.373,-9.373 -9.373,-24.567 0,-33.94c40.55,-40.55 40.55,-106.529 0,-147.078c-9.373,-9.373 -9.373,-24.569 0,-33.941s24.568,-9.372 33.941,0c59.265,59.265 59.265,155.696 0,214.961c-4.686,4.684 -10.828,7.027 -16.97,7.027z"/>
  <path fill="#ffffff" id="svg_2" d="m209.003,480c-4.164,0 -8.256,-1.625 -11.317,-4.687l-123.313,-123.313l-57.373,0c-8.836,0 -16,-7.163 -16,-16l0,-160c0,-8.836 7.164,-16 16,-16l57.373,0l123.313,-123.314c4.577,-4.577 11.458,-5.945 17.437,-3.468s9.877,8.311 9.877,14.782l0,416c0,6.472 -3.898,12.306 -9.877,14.782c-1.979,0.82 -4.059,1.218 -6.12,1.218z"/>
 </g>
</svg>